<svg width="385" height="385" viewBox="0 0 385 385" fill="none" xmlns="http://www.w3.org/2000/svg">
<path d="M240.372 147.969C280.929 188.821 280.689 254.816 239.837 295.372C198.985 335.929 132.99 335.689 92.4339 294.837C51.8775 253.985 52.1171 187.99 92.9691 147.434C133.821 106.878 199.816 107.117 240.372 147.969Z" fill="url(#paint0_radial_251_201)"/>
<path fill-rule="evenodd" clip-rule="evenodd" d="M147.311 100.54C145.191 98.2176 142.685 96.1824 140.402 94.6661L142.614 91.3337C145.124 93.0002 147.891 95.2419 150.265 97.8431C152.626 100.429 154.696 103.477 155.652 106.764C156.628 110.12 156.429 113.715 154.248 117.127C152.116 120.464 148.228 123.409 142.275 125.879C135.392 128.736 131.635 132.338 129.811 135.939C127.99 139.533 127.961 143.39 129.045 147.034C130.136 150.702 132.338 154.071 134.821 156.51C137.381 159.024 139.895 160.226 141.508 160.226V164.226C138.328 164.226 134.85 162.145 132.018 159.363C129.109 156.506 126.517 152.564 125.211 148.175C123.898 143.763 123.869 138.818 126.242 134.132C128.613 129.452 133.244 125.296 140.741 122.185C146.292 119.881 149.355 117.356 150.878 114.973C152.352 112.667 152.512 110.294 151.811 107.881C151.089 105.399 149.444 102.877 147.311 100.54ZM207.227 100.54C205.107 98.2176 202.601 96.1824 200.318 94.6661L202.53 91.3337C205.04 93.0002 207.807 95.2419 210.181 97.8431C212.542 100.429 214.612 103.477 215.568 106.764C216.544 110.12 216.345 113.715 214.164 117.127C212.032 120.464 208.144 123.409 202.19 125.879C195.307 128.736 191.55 132.338 189.727 135.939C187.906 139.533 187.877 143.39 188.961 147.034C190.052 150.702 192.254 154.071 194.737 156.51C197.268 158.995 199.753 160.198 201.367 160.225C213.818 159.429 232.484 159.189 248.099 161.076C255.901 162.018 263.094 163.508 268.391 165.807C273.559 168.05 277.721 171.442 277.721 176.548C277.721 178.372 276.639 179.777 275.331 180.79C274.021 181.803 272.224 182.643 270.123 183.367C265.899 184.82 259.905 185.982 252.646 186.917C238.094 188.791 218.009 189.807 195.772 190.245C152.086 191.105 99.8449 189.739 64.2915 188.182C63.318 205.162 64.5656 230.708 71.3533 254.475C78.4221 279.226 91.3516 301.567 113.516 310.766C156.699 328.687 218.211 330.051 251.598 278.112C262.345 261.392 270.273 239.044 273.735 209.733L273.926 208.114L275.551 207.975C282.339 207.395 290.13 207.421 297.474 208.521C304.782 209.615 311.843 211.803 316.998 215.698C322.26 219.675 325.476 225.402 324.942 233.172C324.42 240.775 320.325 250.124 311.614 261.61C307.962 266.426 303.424 270.659 298.147 273.743C291.73 277.492 283.565 281.337 275.412 283.245C267.994 284.981 260.271 285.183 253.914 281.877C218.753 334.589 155.487 332.515 111.983 314.46C88.1318 304.562 74.6983 280.753 67.5071 255.573C60.2993 230.336 59.2144 203.24 60.425 185.957L60.5613 184.011L62.5096 184.099C98.0363 185.689 151.315 187.12 195.694 186.246C217.894 185.808 237.804 184.795 252.136 182.949C259.319 182.024 264.99 180.903 268.821 179.584C270.747 178.921 272.074 178.253 272.882 177.627C273.691 177 273.721 176.634 273.721 176.548C273.721 174.016 271.691 171.599 266.798 169.476C262.034 167.409 255.297 165.974 247.62 165.047C232.308 163.197 213.868 163.43 201.552 164.222L201.488 164.226H201.424C198.244 164.226 194.766 162.145 191.934 159.363C189.025 156.506 186.433 152.564 185.127 148.175C183.814 143.763 183.784 138.818 186.158 134.132C188.528 129.452 193.16 125.296 200.657 122.185C206.208 119.881 209.271 117.356 210.794 114.973C212.267 112.667 212.428 110.294 211.727 107.881C211.005 105.399 209.36 102.877 207.227 100.54ZM256.085 278.492C261.17 280.993 267.622 280.96 274.501 279.35C282.129 277.564 289.912 273.921 296.129 270.289C300.895 267.504 305.05 263.645 308.427 259.193C316.943 247.963 320.508 239.366 320.952 232.898C321.384 226.597 318.873 222.128 314.587 218.89C310.194 215.571 303.888 213.526 296.881 212.477C290.477 211.517 283.652 211.413 277.509 211.836C274.017 239.817 266.449 261.698 256.085 278.492Z" fill="#115099"/>
<defs>
<radialGradient id="paint0_radial_251_201" cx="0" cy="0" r="1" gradientUnits="userSpaceOnUse" gradientTransform="translate(165.868 368.806) rotate(-89.9717) scale(267.806)">
<stop offset="0.207516" stop-color="#D9D4EB"/>
<stop offset="0.850611" stop-color="#D9D4EB" stop-opacity="0"/>
</radialGradient>
</defs>
</svg>
