<svg width="50" height="59" viewBox="0 0 50 59" fill="none" xmlns="http://www.w3.org/2000/svg">
<path d="M7.12826 31.428C-0.149393 22.9921 12.791 17.2708 19.3251 7.46972C25.8592 -2.33141 26.7304 6.59851 34.3535 13.5682C41.9766 20.5379 48.5307 32.5769 40.0164 39.9223C31.502 47.2677 14.4059 39.8638 7.12826 31.428Z" fill="url(#paint0_radial_251_226)"/>
<path d="M6.52382 36.9617L12.7758 53.478C13.8059 56.1996 16.4124 57.9999 19.3224 57.9999H30.7477C33.7947 57.9999 36.4917 56.0289 37.4171 53.1259L42.5696 36.9617M42.5696 36.9617C32.7898 36.8215 10.4174 38.2696 6.52386 31.1724V31.1724C2.52779 23.8883 14.3869 24.9613 22.5745 26.3717C28.3822 27.3721 34.8716 27.4894 39.2165 26.4426M42.5696 36.9617C44.489 34.2918 46.5054 28.4501 39.2165 26.4426M39.2165 26.4426C43.278 22.6557 40.2716 15.6919 31.9468 17.5457C31.0613 17.7429 30.0445 17.9182 28.9447 18.0632C18.25 19.4732 23.3067 12.4352 23.3067 1.64795V1.64795C26.7995 4.45304 36.2392 12.2451 33.2215 15.2746" stroke="#115099" stroke-width="2"/>
<defs>
<radialGradient id="paint0_radial_251_226" cx="0" cy="0" r="1" gradientUnits="userSpaceOnUse" gradientTransform="translate(28.74 -0.788171) rotate(94.3011) scale(52.0722 52.073)">
<stop offset="0.207516" stop-color="#D9D4EB"/>
<stop offset="0.850611" stop-color="#D9D4EB" stop-opacity="0"/>
</radialGradient>
</defs>
</svg>
