<svg width="385" height="385" viewBox="0 0 385 385" fill="none" xmlns="http://www.w3.org/2000/svg">
<path d="M112 202C78.5861 163.268 137.999 137 168 92C198 46.9999 202 88 237 120C272 152 302.092 207.275 263 241C223.908 274.725 145.414 240.732 112 202Z" fill="url(#paint0_radial_251_202)"/>
<path d="M109.366 227.679L144.194 319.483C145.225 322.202 147.83 324 150.739 324H238.879C241.924 324 244.62 322.031 245.547 319.13L274.763 227.679M274.763 227.679C229.888 227.037 127.232 233.667 109.366 201.174C101.882 187.561 100.756 178.086 103.084 171.49C109.265 153.976 135.195 165.473 152.723 171.615C183.608 182.439 231.271 186.276 259.377 179.519M274.763 227.679C283.57 215.456 292.822 188.71 259.377 179.519M259.377 179.519C278.013 162.181 264.218 130.298 226.02 138.786C206.379 143.15 172.668 145.17 149.888 140.514C135.472 137.568 137.683 122.847 149.547 114.144C166.852 101.452 186.375 83.0286 186.375 66C202.401 78.8427 245.716 114.518 231.868 128.388" stroke="#115099" stroke-width="4"/>
<defs>
<radialGradient id="paint0_radial_251_202" cx="0" cy="0" r="1" gradientUnits="userSpaceOnUse" gradientTransform="translate(211.227 54.0854) rotate(94.3011) scale(239.08 239.084)">
<stop offset="0.207516" stop-color="#D9D4EB"/>
<stop offset="0.850611" stop-color="#D9D4EB" stop-opacity="0"/>
</radialGradient>
</defs>
</svg>
