<svg width="324" height="395" viewBox="0 0 324 395" fill="none" xmlns="http://www.w3.org/2000/svg">
<ellipse cx="214" cy="99.5" rx="110" ry="99.5" fill="#DCEBCE"/>
<rect x="104" y="98" width="220" height="296" fill="url(#paint0_linear_278_27)"/>
<rect x="104" y="239" width="52" height="52" fill="url(#paint1_linear_278_27)"/>
<rect x="156" y="239" width="52" height="52" fill="url(#paint2_linear_278_27)"/>
<rect x="156" y="187" width="52" height="52" fill="url(#paint3_linear_278_27)"/>
<rect x="104" y="291" width="52" height="52" fill="url(#paint4_linear_278_27)"/>
<rect x="156" y="291" width="52" height="52" fill="url(#paint5_linear_278_27)"/>
<rect x="104" y="343" width="52" height="52" fill="url(#paint6_linear_278_27)"/>
<rect x="156" y="343" width="52" height="52" fill="url(#paint7_linear_278_27)"/>
<rect x="52" y="343" width="52" height="52" fill="url(#paint8_linear_278_27)"/>
<rect x="52" y="291" width="52" height="52" fill="url(#paint9_linear_278_27)"/>
<rect y="343" width="52" height="52" fill="url(#paint10_linear_278_27)"/>
<defs>
<linearGradient id="paint0_linear_278_27" x1="214" y1="98" x2="214" y2="394" gradientUnits="userSpaceOnUse">
<stop stop-color="#DCEBCE"/>
<stop offset="1" stop-color="#607F8E"/>
</linearGradient>
<linearGradient id="paint1_linear_278_27" x1="104" y1="276" x2="217" y2="274" gradientUnits="userSpaceOnUse">
<stop stop-color="#D9D4EB"/>
<stop offset="1" stop-color="#D9D4EB" stop-opacity="0"/>
</linearGradient>
<linearGradient id="paint2_linear_278_27" x1="156" y1="276" x2="269" y2="274" gradientUnits="userSpaceOnUse">
<stop stop-color="#D9D4EB"/>
<stop offset="1" stop-color="#D9D4EB" stop-opacity="0"/>
</linearGradient>
<linearGradient id="paint3_linear_278_27" x1="156" y1="224" x2="269" y2="222" gradientUnits="userSpaceOnUse">
<stop stop-color="#D9D4EB"/>
<stop offset="1" stop-color="#D9D4EB" stop-opacity="0"/>
</linearGradient>
<linearGradient id="paint4_linear_278_27" x1="104" y1="328" x2="217" y2="326" gradientUnits="userSpaceOnUse">
<stop stop-color="#D9D4EB"/>
<stop offset="1" stop-color="#D9D4EB" stop-opacity="0"/>
</linearGradient>
<linearGradient id="paint5_linear_278_27" x1="156" y1="328" x2="269" y2="326" gradientUnits="userSpaceOnUse">
<stop stop-color="#D9D4EB"/>
<stop offset="1" stop-color="#D9D4EB" stop-opacity="0"/>
</linearGradient>
<linearGradient id="paint6_linear_278_27" x1="104" y1="380" x2="217" y2="378" gradientUnits="userSpaceOnUse">
<stop stop-color="#D9D4EB"/>
<stop offset="1" stop-color="#D9D4EB" stop-opacity="0"/>
</linearGradient>
<linearGradient id="paint7_linear_278_27" x1="156" y1="380" x2="269" y2="378" gradientUnits="userSpaceOnUse">
<stop stop-color="#D9D4EB"/>
<stop offset="1" stop-color="#D9D4EB" stop-opacity="0"/>
</linearGradient>
<linearGradient id="paint8_linear_278_27" x1="52" y1="380" x2="165" y2="378" gradientUnits="userSpaceOnUse">
<stop stop-color="#D9D4EB"/>
<stop offset="1" stop-color="#D9D4EB" stop-opacity="0"/>
</linearGradient>
<linearGradient id="paint9_linear_278_27" x1="52" y1="328" x2="165" y2="326" gradientUnits="userSpaceOnUse">
<stop stop-color="#D9D4EB"/>
<stop offset="1" stop-color="#D9D4EB" stop-opacity="0"/>
</linearGradient>
<linearGradient id="paint10_linear_278_27" x1="4.60702e-08" y1="380" x2="113" y2="378" gradientUnits="userSpaceOnUse">
<stop stop-color="#D9D4EB"/>
<stop offset="1" stop-color="#D9D4EB" stop-opacity="0"/>
</linearGradient>
</defs>
</svg>
